<svg width="40" height="40" viewBox="0 0 40 40" fill="none" xmlns="http://www.w3.org/2000/svg">
    <circle cx="20" cy="20" r="20" fill="#E0E7FF"/>
    <path fill-rule="evenodd" clip-rule="evenodd" d="M23.3788 15.8139C23.3788 15.9805 23.3126 16.1402 23.1949 16.2579C23.0771 16.3757 22.9174 16.4418 22.7509 16.4418C22.5844 16.4418 22.4247 16.3757 22.3069 16.2579C22.1891 16.1402 22.123 15.9805 22.123 15.8139V14.5581C22.123 13.9475 21.8804 13.3619 21.4487 12.9301C21.0169 12.4984 20.4313 12.2558 19.8207 12.2558C19.2101 12.2558 18.6245 12.4984 18.1927 12.9301C17.7609 13.3619 17.5184 13.9475 17.5184 14.5581V15.8139C17.5184 15.9805 17.4522 16.1402 17.3344 16.2579C17.2167 16.3757 17.057 16.4418 16.8904 16.4418C16.7239 16.4418 16.5642 16.3757 16.4465 16.2579C16.3287 16.1402 16.2625 15.9805 16.2625 15.8139V14.5581C16.2625 13.6145 16.6374 12.7094 17.3047 12.0422C17.972 11.3749 18.877 11 19.8207 11C20.7643 11 21.6694 11.3749 22.3366 12.0422C23.0039 12.7094 23.3788 13.6145 23.3788 14.5581V15.8139Z" fill="#506AC1"/>
    <path fill-rule="evenodd" clip-rule="evenodd" d="M25.9674 16.9442L26.6372 26.9907C26.654 27.2479 26.6179 27.506 26.5311 27.7487C26.4443 27.9915 26.3086 28.214 26.1325 28.4023C25.9564 28.5906 25.7435 28.7408 25.507 28.8436C25.2706 28.9464 25.0155 28.9996 24.7577 28.9999H14.8837C14.6257 28.9998 14.3706 28.9468 14.134 28.844C13.8974 28.7413 13.6845 28.5911 13.5083 28.4028C13.3321 28.2144 13.1964 27.9919 13.1097 27.749C13.023 27.5061 12.9871 27.248 13.0041 26.9907L13.6739 16.9442C13.7058 16.4674 13.9176 16.0205 14.2666 15.6941C14.6156 15.3676 15.0756 15.186 15.5534 15.186H24.0879C24.5658 15.186 25.0258 15.3676 25.3747 15.6941C25.7237 16.0205 25.9356 16.4674 25.9674 16.9442ZM21.902 18.8932C21.7148 19.2866 21.4199 19.619 21.0515 19.8517C20.6832 20.0843 20.2564 20.2078 19.8207 20.2078C19.385 20.2078 18.9582 20.0843 18.5898 19.8517C18.2214 19.619 17.9266 19.2866 17.7394 18.8932C17.704 18.8187 17.6542 18.7519 17.593 18.6966C17.5318 18.6414 17.4603 18.5987 17.3826 18.5711C17.3049 18.5434 17.2225 18.5314 17.1402 18.5356C17.0578 18.5398 16.9771 18.5602 16.9026 18.5956C16.8281 18.631 16.7613 18.6807 16.706 18.7419C16.6508 18.8031 16.6081 18.8746 16.5805 18.9523C16.5528 19.03 16.5408 19.1124 16.545 19.1948C16.5492 19.2771 16.5696 19.3579 16.605 19.4323C16.8933 20.0412 17.3486 20.5557 17.9179 20.916C18.4871 21.2762 19.147 21.4675 19.8207 21.4675C20.4944 21.4675 21.1542 21.2762 21.7235 20.916C22.2927 20.5557 22.748 20.0412 23.0364 19.4323C23.0718 19.3579 23.0922 19.2771 23.0964 19.1948C23.1006 19.1124 23.0885 19.03 23.0609 18.9523C23.0332 18.8746 22.9906 18.8031 22.9353 18.7419C22.88 18.6807 22.8132 18.631 22.7388 18.5956C22.6643 18.5602 22.5835 18.5398 22.5012 18.5356C22.4188 18.5314 22.3364 18.5434 22.2587 18.5711C22.181 18.5987 22.1095 18.6414 22.0483 18.6966C21.9871 18.7519 21.9374 18.8187 21.902 18.8932Z" fill="#506AC1"/>
</svg>
