<svg width="23" height="22" viewBox="0 0 23 22" fill="none" xmlns="http://www.w3.org/2000/svg">
    <path d="M13.1986 13.637C15.0817 13.7226 17.079 13.9437 19.4143 14.2946C20.1476 13.1319 20.7125 11.8979 21.0635 10.6011C21.7711 7.97617 21.9266 5.78347 21.9523 3.60219C21.9531 3.5422 21.9397 3.48287 21.913 3.42911C21.8864 3.37535 21.8473 3.3287 21.7991 3.29301C21.7509 3.25733 21.6949 3.23363 21.6357 3.22389C21.5765 3.21415 21.5158 3.21863 21.4587 3.23698C21.1288 3.34219 20.7849 3.39655 20.4386 3.39818C19.5967 3.39773 18.785 3.08452 18.1611 2.51933C17.5371 1.95414 17.1453 1.17728 17.0619 0.339533C17.0517 0.246845 17.0076 0.161199 16.938 0.0990524C16.8685 0.0369061 16.7785 0.00264505 16.6852 0.00285318L6.07554 0C5.98234 0.000570255 5.89264 0.0355459 5.82365 0.0982123C5.75466 0.160879 5.71126 0.246819 5.70176 0.339533C5.61885 1.17839 5.22673 1.95638 4.60175 2.52203C3.97677 3.08768 3.16365 3.40051 2.3207 3.39961C1.95936 3.39781 1.60061 3.33858 1.25787 3.22414C1.2015 3.20554 1.14154 3.20048 1.08284 3.20936C1.02415 3.21825 0.968371 3.24083 0.920027 3.27528C0.871684 3.30974 0.832133 3.35509 0.804577 3.40767C0.777021 3.46025 0.762234 3.51858 0.761415 3.57794C0.740016 5.71785 0.828465 8.04893 1.55461 10.6325C1.93254 11.9363 2.50486 13.1757 3.25227 14.3089C4.01836 14.1948 4.7545 14.092 5.54198 13.995C6.88185 13.8256 8.22762 13.7066 9.57644 13.6384C9.93309 13.6241 10.1613 13.6141 10.3867 13.6084C11.0129 13.5906 11.6394 13.5897 12.2656 13.6056C12.5794 13.6127 12.8876 13.6227 13.1986 13.637ZM11.3797 1.51078C14.4754 1.51078 16.9905 4.11149 16.9905 7.31137C16.9905 10.5113 14.4754 13.1134 11.3797 13.1134C8.28393 13.1134 5.76453 10.5113 5.76453 7.31137C5.76453 4.11149 8.28393 1.51078 11.3797 1.51078ZM11.3797 2.29113C11.2342 2.29113 11.0915 2.30112 10.9503 2.31396L11.6821 2.64779L12.501 2.43094C12.1341 2.33967 11.7577 2.29273 11.3797 2.29113ZM11.0316 5.06018L11.2384 3.29832L9.71196 2.59928C9.05144 2.84894 8.45655 3.23698 7.96722 3.73629L7.94154 5.78062L9.26115 6.36838L11.0316 5.06018ZM13.725 2.91314L11.9988 3.3725C11.9289 3.94885 11.8576 4.52521 11.7891 5.10298L13.5125 6.41118L15.0247 5.93898L15.2672 4.30979C14.8563 3.73914 14.3313 3.2598 13.725 2.91314ZM7.1997 4.75489C6.8673 5.33409 6.64475 5.98891 6.56058 6.68794L7.18401 5.90331L7.1997 4.75489ZM15.8692 5.39401L15.7565 6.13585L16.2016 6.73074C16.1513 6.27226 16.0395 5.82264 15.8692 5.39401ZM9.75762 6.96756L10.3654 8.94056L12.3683 8.95197L12.9989 6.98753L11.3825 5.76065L9.75762 6.96756ZM7.67476 6.51533L6.55916 7.91911C6.65046 8.70089 6.91296 9.42561 7.30955 10.0533L8.94873 10.4328L9.6763 9.26726L9.00865 7.10737L8.80892 7.01892L7.67476 6.51533ZM15.2201 6.69223L13.7393 7.1573L13.0659 9.25727L13.9804 10.3572L15.4327 10.079C15.825 9.46555 16.0875 8.7551 16.1873 7.99044L15.2201 6.69223ZM10.2954 9.71949L9.57215 10.875L10.3711 12.2246C10.6963 12.2959 11.033 12.3345 11.3797 12.3345C11.8262 12.3345 12.257 12.266 12.6679 12.1504L13.3798 10.838L12.4667 9.73376L10.2954 9.71949ZM14.6466 11.0234L14.0874 11.1318L13.7992 11.664C14.1037 11.4819 14.3874 11.2671 14.6452 11.0234H14.6466ZM8.13413 11.0434C8.46653 11.353 8.84173 11.614 9.24689 11.8209L8.89166 11.2189L8.13413 11.0434ZM11.3326 14.346C8.79323 14.3503 6.26955 14.6071 3.01831 15.1049C2.96422 15.1134 2.91261 15.1335 2.86705 15.1639C2.8215 15.1942 2.78307 15.2341 2.75445 15.2808C2.72582 15.3275 2.70768 15.3798 2.70126 15.4342C2.69485 15.4885 2.70032 15.5436 2.7173 15.5957L3.4734 17.8597C3.53046 18.0338 3.70594 18.1408 3.88712 18.1137C10.4253 17.1079 12.3441 17.1108 18.8694 18.1137C18.9578 18.1277 19.0484 18.1099 19.125 18.0634C19.2015 18.0169 19.2591 17.9447 19.2874 17.8597L20.0435 15.5957C20.0604 15.5436 20.0659 15.4885 20.0595 15.4342C20.0531 15.3798 20.0349 15.3275 20.0063 15.2808C19.9777 15.2341 19.9393 15.1942 19.8937 15.1639C19.8482 15.1335 19.7965 15.1134 19.7425 15.1049C16.4284 14.5914 13.8734 14.3417 11.3326 14.346ZM2.22084 16.4873L0.274941 17.0009C0.19963 17.0223 0.132803 17.0665 0.0836853 17.1274C0.0345676 17.1884 0.0055813 17.2631 0.000727635 17.3412C-0.00412603 17.4193 0.0153923 17.497 0.0565883 17.5636C0.0977843 17.6301 0.158627 17.6823 0.230716 17.7128L1.51181 18.2335L0.654419 19.3206C0.606102 19.3826 0.578334 19.4582 0.574981 19.5367C0.571629 19.6153 0.592858 19.693 0.635714 19.7589C0.67857 19.8248 0.740919 19.8758 0.814079 19.9046C0.887239 19.9334 0.967569 19.9387 1.04388 19.9197L5.05979 18.8598C5.11075 18.8466 5.15839 18.8229 5.19966 18.7902C5.24093 18.7575 5.27492 18.7166 5.29946 18.67C4.87433 18.7328 4.47488 18.7884 4.0041 18.8598C3.73996 18.9005 3.46994 18.8465 3.24177 18.7074C3.0136 18.5682 2.84197 18.3529 2.75724 18.0994L2.22084 16.4873ZM20.5385 16.5016L20.0064 18.0994C19.9218 18.3537 19.7499 18.5698 19.5211 18.7092C19.2923 18.8487 19.0214 18.9026 18.7567 18.8612C18.2616 18.7842 17.8408 18.7257 17.3957 18.6615C17.4442 18.7599 17.5326 18.8327 17.6396 18.8612L21.6555 19.9197C21.7321 19.9396 21.8129 19.9349 21.8866 19.9064C21.9603 19.8779 22.0233 19.827 22.0666 19.7609C22.1099 19.6947 22.1314 19.6167 22.128 19.5377C22.1246 19.4587 22.0966 19.3828 22.0479 19.3206L21.1862 18.2335L22.4687 17.7128C22.5413 17.6826 22.6027 17.6304 22.6443 17.5637C22.6859 17.4969 22.7056 17.4189 22.7007 17.3404C22.6959 17.2619 22.6666 17.1869 22.6171 17.1257C22.5676 17.0646 22.5003 17.0205 22.4245 16.9995L20.5385 16.5016ZM11.384 18.1094C10.0272 18.1094 8.63487 18.2292 6.93578 18.4461C8.22258 19.5588 9.65775 20.5717 11.1899 21.4662C11.2477 21.5 11.3134 21.5179 11.3804 21.5179C11.4473 21.5179 11.5131 21.5 11.5708 21.4662C13.0736 20.5959 14.4896 19.5836 15.7993 18.4432C14.1159 18.2292 12.7335 18.1094 11.384 18.1094Z" fill="#C4C4C4"/>
</svg>
