<svg width="23" height="23" viewBox="0 0 23 23" fill="none" xmlns="http://www.w3.org/2000/svg">
    <path d="M9.58363 15.3333C9.58363 15.7124 9.47122 16.083 9.26062 16.3982C9.05002 16.7134 8.75068 16.959 8.40047 17.1041C8.05025 17.2492 7.66488 17.2871 7.29309 17.2132C6.9213 17.1392 6.57979 16.9567 6.31175 16.6886C6.0437 16.4206 5.86116 16.0791 5.78721 15.7073C5.71326 15.3355 5.75121 14.9501 5.89628 14.5999C6.04134 14.2496 6.287 13.9503 6.60219 13.7397C6.91738 13.5291 7.28793 13.4167 7.66701 13.4167C8.17533 13.4167 8.66283 13.6186 9.02226 13.978C9.3817 14.3375 9.58363 14.825 9.58363 15.3333ZM23 7.66667V13.2585L16.0858 14.5149C15.8677 14.5628 15.6732 14.6854 15.5359 14.8614C15.3985 15.0374 15.327 15.2558 15.3335 15.479C15.3066 16.5725 15.0431 17.6472 14.5611 18.629C14.0345 19.7473 13.2438 20.7207 12.2574 21.4655C11.2709 22.2102 10.1181 22.704 8.89844 22.9042C8.49298 22.9678 8.08318 22.9999 7.67276 23C6.617 23.0009 5.57245 22.7836 4.60455 22.362C3.63666 21.9403 2.76629 21.3233 2.04798 20.5495C1.32967 19.7758 0.778916 18.862 0.430221 17.8655C0.0815266 16.8689 -0.0575887 15.8111 0.0215933 14.7583C0.20247 12.8046 1.11189 10.9904 2.56908 9.67648C4.02627 8.36255 5.92451 7.64507 7.88646 7.66667H23ZM11.5003 15.3333C11.5003 14.5752 11.2754 13.834 10.8542 13.2036C10.433 12.5733 9.83436 12.0819 9.13393 11.7918C8.43349 11.5017 7.66276 11.4257 6.91918 11.5737C6.1756 11.7216 5.49258 12.0867 4.95649 12.6228C4.4204 13.1589 4.05532 13.8419 3.90741 14.5855C3.75951 15.3291 3.83542 16.0998 4.12555 16.8003C4.41568 17.5007 4.90699 18.0994 5.53737 18.5206C6.16774 18.9418 6.90886 19.1667 7.66701 19.1667C8.68365 19.1667 9.65865 18.7628 10.3775 18.0439C11.0964 17.325 11.5003 16.35 11.5003 15.3333ZM10.5419 0H8.62532V4.79167H10.5419V0ZM15.6363 1.97608L13.9583 1.05417L11.6421 5.24496L13.321 6.17167L15.6363 1.97608ZM7.54722 5.24496L5.23194 1.05417L3.55393 1.97992L5.87017 6.17167L7.54722 5.24496Z" fill="#C4C4C4"/>
</svg>
