<svg width="13" height="20" viewBox="0 0 13 20" fill="none" xmlns="http://www.w3.org/2000/svg">
    <path d="M11.75 2.5H9V1.875C9 0.839453 8.32844 0 7.5 0H5.5C4.67156 0 4 0.839453 4 1.875V2.5H1.25C0.559656 2.5 0 3.19957 0 4.0625V5.3125C0 5.6577 0.223844 5.9375 0.5 5.9375H12.5C12.7762 5.9375 13 5.6577 13 5.3125V4.0625C13 3.19957 12.4403 2.5 11.75 2.5ZM5 1.875C5 1.53047 5.22437 1.25 5.5 1.25H7.5C7.77563 1.25 8 1.53047 8 1.875V2.5H5V1.875ZM0.948875 7.1875C0.927731 7.1875 0.906806 7.19287 0.88737 7.20327C0.867933 7.21368 0.850388 7.22891 0.835797 7.24804C0.821207 7.26717 0.809874 7.2898 0.802485 7.31456C0.795097 7.33933 0.791806 7.36571 0.792813 7.39211L1.20531 18.2141C1.24344 19.2156 1.90156 20 2.70344 20H10.2966C11.0984 20 11.7566 19.2156 11.7947 18.2141L12.2072 7.39211C12.2082 7.36571 12.2049 7.33933 12.1975 7.31456C12.1901 7.2898 12.1788 7.26717 12.1642 7.24804C12.1496 7.22891 12.1321 7.21368 12.1126 7.20327C12.0932 7.19287 12.0723 7.1875 12.0511 7.1875H0.948875ZM8.5 8.75C8.5 8.40469 8.72375 8.125 9 8.125C9.27625 8.125 9.5 8.40469 9.5 8.75V16.875C9.5 17.2203 9.27625 17.5 9 17.5C8.72375 17.5 8.5 17.2203 8.5 16.875V8.75ZM6 8.75C6 8.40469 6.22375 8.125 6.5 8.125C6.77625 8.125 7 8.40469 7 8.75V16.875C7 17.2203 6.77625 17.5 6.5 17.5C6.22375 17.5 6 17.2203 6 16.875V8.75ZM3.5 8.75C3.5 8.40469 3.72375 8.125 4 8.125C4.27625 8.125 4.5 8.40469 4.5 8.75V16.875C4.5 17.2203 4.27625 17.5 4 17.5C3.72375 17.5 3.5 17.2203 3.5 16.875V8.75Z" fill="#BF3039"/>
</svg>
