<svg width="40" height="40" viewBox="0 0 40 40" fill="none" xmlns="http://www.w3.org/2000/svg">
    <rect width="40" height="40" rx="20" fill="#E0E7FF"/>
    <g clip-path="url(#clip0_0_1)">
        <path d="M27.3246 15.6345C27.306 15.5165 27.1166 14.4565 26.3486 13.6825C25.5773 12.9278 24.5133 12.7412 24.3946 12.7225C24.2366 12.6965 24.0753 12.7298 23.94 12.8138C23.8926 12.8432 23.1973 13.2785 21.8246 14.4392C22.5306 14.6885 23.4433 15.1212 24.1833 15.8452C24.926 16.5718 25.37 17.4658 25.6246 18.1592C26.7713 16.8192 27.2026 16.1405 27.2313 16.0938C27.3166 15.9572 27.35 15.7938 27.3246 15.6345Z" fill="#506AC1"/>
        <path d="M20.6333 15.4824C19.918 16.1278 19.0853 16.9118 18.132 17.8584C14.09 21.8718 13.03 23.4764 12.9867 23.5424C12.926 23.6358 12.8893 23.7431 12.8807 23.8538L12.668 26.5678C12.6533 26.7624 12.7233 26.9531 12.8613 27.0911C12.9867 27.2164 13.1567 27.2864 13.3333 27.2864C13.35 27.2864 13.3673 27.2864 13.3847 27.2844L16.1187 27.0738C16.2287 27.0651 16.3347 27.0298 16.4273 26.9704C16.494 26.9278 18.1093 25.8751 22.1507 21.8624C23.1253 20.8944 23.9293 20.0518 24.5873 19.3311C24.4867 18.8984 24.1353 17.6638 23.2507 16.7991C22.3533 15.9211 21.0627 15.5771 20.6333 15.4824Z" fill="#506AC1"/>
    </g>
    <defs>
        <clipPath id="clip0_0_1">
            <rect width="16" height="16" fill="white" transform="translate(12 12)"/>
        </clipPath>
    </defs>
</svg>
