<svg width="24" height="24" viewBox="0 0 24 24" fill="none" xmlns="http://www.w3.org/2000/svg">
    <path d="M4.31915 4.92351C4.31915 3.94973 4.60791 2.99782 5.14891 2.18816C5.68991 1.37849 6.45886 0.74743 7.35851 0.374782C8.25816 0.00213326 9.24812 -0.0953686 10.2032 0.094606C11.1582 0.284581 12.0355 0.753499 12.7241 1.44206C13.4127 2.13063 13.8816 3.00791 14.0716 3.96298C14.2615 4.91805 14.164 5.908 13.7914 6.80765C13.4187 7.70731 12.7877 8.47625 11.978 9.01726C11.1683 9.55826 10.2164 9.84702 9.24265 9.84702C7.93686 9.84702 6.68455 9.32829 5.76121 8.40495C4.83787 7.48162 4.31915 6.2293 4.31915 4.92351ZM16.687 14.3766C16.6709 14.263 16.6156 14.1585 16.5307 14.0812C15.8846 13.4762 15.1234 13.0074 14.2923 12.7029C13.4612 12.3984 12.5773 12.2644 11.6933 12.3088H6.76982C1.77246 12.3088 0 15.9645 0 19.1032C0 21.9096 1.48936 23.3867 4.30807 23.3867H10.7086C10.7572 23.388 10.8054 23.3789 10.8501 23.3597C10.8947 23.3406 10.9346 23.312 10.9671 23.2759C11.0356 23.2045 11.0751 23.1101 11.0779 23.0112V20.9249C11.0783 20.4354 11.2731 19.9661 11.6195 19.6202L16.5799 14.6351C16.6472 14.5657 16.6854 14.4733 16.687 14.3766ZM12.9242 20.9249V24.0021H16.0014L21.5883 18.4398L18.4878 15.3392L12.9242 20.9249ZM23.6427 14.661L22.2641 13.2824C22.0335 13.0531 21.7215 12.9245 21.3963 12.9245C21.0711 12.9245 20.7592 13.0531 20.5286 13.2824L19.3482 14.4763L22.4487 17.5769L23.6427 16.3965C23.8716 16.1659 24 15.8542 24 15.5294C24 15.2045 23.8716 14.8915 23.6427 14.661Z" fill="#506AC1"/>
</svg>
