<svg width="45" height="30" viewBox="0 0 45 30" fill="none" xmlns="http://www.w3.org/2000/svg">
    <path d="M0 0.00415039H44.5714V29.2444H0V0.00415039Z" fill="white"/>
    <path d="M20.404 0.00415039V12.3142H0V17.5263H20.404V29.2458H24.5366V17.5263H44.5714V12.3142H24.5366V0.00415039H20.404Z" fill="#BD0034"/>
    <path d="M19.025 0.00415039H3.48214L19.025 9.83354V0.00415039ZM0 10.5773H10.9548L0 3.63115V10.5773Z" fill="#1A237B"/>
    <path d="M0 0V1.71043L13.1472 9.91853H16.3758C16.3758 9.91853 3.41807 1.89289 0.339857 0H0Z" fill="#BD0034"/>
    <path d="M19.025 29.2458H3.48214L19.025 19.4164V29.2458ZM0 18.6726H10.9548L0 25.6188V18.6726Z" fill="#1A237B"/>
    <path d="M0 29.25V27.5395L13.1472 19.3314H16.3758C16.3758 19.3314 3.41807 27.3571 0.339857 29.25H0Z" fill="#BD0034"/>
    <path d="M25.5464 0.00415039H41.0893L25.5464 9.83354V0.00415039ZM44.5715 10.5773H33.6167L44.5715 3.63115V10.5773Z" fill="#1A237B"/>
    <path d="M44.5714 0V1.71043L31.4242 9.91853H28.1956C28.1956 9.91853 41.1491 1.89289 44.2315 0.00417827L44.5714 0Z" fill="#BD0034"/>
    <path d="M25.5714 29.1982H41.1143L25.5714 19.3688V29.1982ZM44.5964 18.625H33.6416L44.5964 25.5712V18.625Z" fill="#1A237B"/>
    <path d="M44.5714 29.25V27.5395L31.4242 19.3314H28.1956C28.1956 19.3314 41.1491 27.3571 44.2315 29.2458L44.5714 29.25Z" fill="#BD0034"/>
</svg>
