<svg width="22" height="22" viewBox="0 0 22 22" fill="none" xmlns="http://www.w3.org/2000/svg">
    <path d="M11 15.5126L14.8355 22H7.16447L11 15.5126ZM21.6266 17.9689L11 0L0.373442 17.9689C0.132893 18.3744 0.00407863 18.8363 9.52731e-05 19.3077C-0.00388808 19.7791 0.117102 20.2432 0.350763 20.6527C0.584425 21.0623 0.922425 21.4026 1.3304 21.6393C1.73837 21.8759 2.20177 22.0004 2.67348 22H5.03402L11 11.9102L16.966 22H19.3265C19.7982 22.0004 20.2616 21.8759 20.6696 21.6393C21.0776 21.4026 21.4156 21.0623 21.6492 20.6527C21.8829 20.2432 22.0039 19.7791 21.9999 19.3077C21.9959 18.8363 21.8671 18.3744 21.6266 17.9689Z" fill="#C4C4C4"/>
</svg>
