<svg width="14" height="13" viewBox="0 0 14 13" fill="none" xmlns="http://www.w3.org/2000/svg">
    <path d="M0.50293 4.32617C0.470118 3.40464 0.762267 2.50951 1.31348 1.81152L1.42676 1.6748C2.04555 0.965524 2.89692 0.547035 3.79492 0.5C4.2843 0.509688 4.76557 0.637865 5.20215 0.875L5.38672 0.983398C5.87357 1.29211 6.27814 1.7339 6.55664 2.26562L7 3.11133L7.44336 2.26562C7.68712 1.80023 8.02703 1.40402 8.43457 1.10547L8.61328 0.983398C9.09658 0.677073 9.64505 0.511248 10.2041 0.5C11.046 0.543841 11.8473 0.913714 12.4541 1.54395L12.5732 1.6748C13.1975 2.39041 13.5321 3.34334 13.4971 4.32617V4.34473C13.497 5.58967 12.8708 6.94981 11.9033 8.29297C11.0632 9.45928 9.99925 10.5674 8.97168 11.5127L8.53418 11.9072C8.10069 12.2922 7.55704 12.5 7 12.5C6.5127 12.5 6.03575 12.3414 5.63379 12.0439L5.46582 11.9072L5.02832 11.5127C4.00075 10.5674 2.93684 9.45928 2.09668 8.29297C1.12915 6.94981 0.503032 5.58967 0.50293 4.34473V4.32617Z" stroke="#1E1E1E"/>
</svg>
