<svg width="21" height="21" viewBox="0 0 21 21" fill="none" xmlns="http://www.w3.org/2000/svg">
    <path d="M19.25 5.0115V1.75361C19.25 1.2707 18.8589 0.878773 18.375 0.878773C17.8911 0.878773 17.5 1.2707 17.5 1.75361V3.82347L12.9474 0.751922C11.4607 -0.25064 9.53925 -0.25064 8.05262 0.751922L1.92763 4.88465C0.721 5.69912 0 7.05424 0 8.51084V16.6258C0 19.0377 1.96263 21 4.375 21H6.125C6.60887 21 7 20.6081 7 20.1252V12.2516C7 11.7696 7.392 11.3768 7.875 11.3768H13.125C13.608 11.3768 14 11.7696 14 12.2516V20.1252C14 20.6081 14.3911 21 14.875 21H16.625C19.0374 21 21 19.0377 21 16.6258V8.51084C21 7.12773 20.349 5.83559 19.25 5.0115Z" fill="#C3C3C3"/>
</svg>
