<svg width="40" height="40" viewBox="0 0 40 40" fill="none" xmlns="http://www.w3.org/2000/svg">
    <circle cx="20" cy="20" r="20" fill="#E0E7FF"/>
    <path d="M20 11C21.8558 11.0024 23.6348 11.7143 24.947 12.9797C26.2592 14.245 26.9975 15.9605 27 17.75C27 22.5959 20.4783 28.6653 20.2013 28.9212C20.1474 28.9717 20.0752 29 20 29C19.9248 29 19.8526 28.9717 19.7988 28.9212C19.5217 28.6653 13 22.5959 13 17.75C13.0025 15.9605 13.7408 14.245 15.053 12.9797C16.3652 11.7143 18.1442 11.0024 20 11ZM20 20.8437C20.6345 20.8437 21.2548 20.6623 21.7825 20.3223C22.3101 19.9824 22.7213 19.4992 22.9641 18.9339C23.2069 18.3686 23.2705 17.7466 23.1467 17.1464C23.0229 16.5463 22.7173 15.9951 22.2686 15.5624C21.8199 15.1297 21.2483 14.8351 20.6259 14.7157C20.0036 14.5963 19.3585 14.6576 18.7722 14.8917C18.186 15.1259 17.6849 15.5224 17.3324 16.0312C16.9798 16.54 16.7917 17.1381 16.7917 17.75C16.7922 18.5703 17.1304 19.3569 17.732 19.937C18.3335 20.5171 19.1493 20.8432 20 20.8437Z" fill="#506AC1"/>
</svg>
