<svg width="9" height="12" viewBox="0 0 9 12" fill="none" xmlns="http://www.w3.org/2000/svg">
    <path d="M4.5 0C5.69299 0.00158747 6.83666 0.476203 7.68023 1.31977C8.5238 2.16334 8.99841 3.30701 9 4.5C9 7.73062 4.8075 11.7769 4.62937 11.9475C4.59473 11.9812 4.54832 12 4.5 12C4.45168 12 4.40527 11.9812 4.37063 11.9475C4.1925 11.7769 0 7.73062 0 4.5C0.00158787 3.30701 0.476203 2.16334 1.31977 1.31977C2.16334 0.476203 3.30701 0.00158747 4.5 0ZM4.5 6.56249C4.90792 6.56249 5.30669 6.44153 5.64586 6.2149C5.98504 5.98827 6.2494 5.66615 6.4055 5.28928C6.56161 4.91241 6.60245 4.49771 6.52287 4.09762C6.44329 3.69754 6.24685 3.33003 5.95841 3.04159C5.66996 2.75314 5.30246 2.55671 4.90237 2.47713C4.50229 2.39755 4.08759 2.43839 3.71072 2.5945C3.33384 2.7506 3.01172 3.01496 2.78509 3.35413C2.55846 3.69331 2.4375 4.09207 2.4375 4.5C2.43785 5.0469 2.65526 5.5713 3.04198 5.95802C3.42869 6.34474 3.9531 6.56215 4.5 6.56249Z" fill="#727272"/>
</svg>
