<svg width="17" height="17" viewBox="0 0 17 17" fill="none" xmlns="http://www.w3.org/2000/svg">
    <path d="M8.14583 11.3333C7.86404 11.3333 7.59379 11.4453 7.39453 11.6445C7.19528 11.8438 7.08333 12.114 7.08333 12.3958V12.9625C7.08333 13.4697 6.88184 13.9562 6.52318 14.3148C6.16451 14.6735 5.67806 14.875 5.17083 14.875H4.0375C3.53027 14.875 3.04382 14.6735 2.68516 14.3148C2.3265 13.9562 2.125 13.4697 2.125 12.9625V4.0375C2.125 3.53027 2.3265 3.04382 2.68516 2.68516C3.04382 2.32649 3.53027 2.125 4.0375 2.125H5.17083C5.67806 2.125 6.16451 2.32649 6.52318 2.68516C6.88184 3.04382 7.08333 3.53027 7.08333 4.0375V4.60417C7.08333 4.88596 7.19528 5.15621 7.39453 5.35547C7.59379 5.55473 7.86404 5.66667 8.14583 5.66667C8.42763 5.66667 8.69788 5.55473 8.89713 5.35547C9.09639 5.15621 9.20833 4.88596 9.20833 4.60417V4.0375C9.20721 2.96703 8.78147 1.94073 8.02454 1.1838C7.2676 0.426865 6.2413 0.00112503 5.17083 0L4.0375 0C2.96703 0.00112503 1.94073 0.426865 1.1838 1.1838C0.426865 1.94073 0.00112503 2.96703 0 4.0375L0 12.9625C0.00112503 14.033 0.426865 15.0593 1.1838 15.8162C1.94073 16.5731 2.96703 16.9989 4.0375 17H5.17083C6.2413 16.9989 7.2676 16.5731 8.02454 15.8162C8.78147 15.0593 9.20721 14.033 9.20833 12.9625V12.3958C9.20833 12.114 9.09639 11.8438 8.89713 11.6445C8.69788 11.4453 8.42763 11.3333 8.14583 11.3333Z" fill="#DA2800"/>
    <path d="M15.9804 6.74696L12.732 3.49855C12.6333 3.3999 12.5161 3.32166 12.3872 3.26829C12.2583 3.21492 12.1201 3.18747 11.9805 3.1875C11.841 3.18753 11.7028 3.21505 11.5739 3.26848C11.445 3.32191 11.3279 3.40021 11.2292 3.4989C11.03 3.69822 10.9181 3.96852 10.9182 4.25034C10.9182 4.38988 10.9457 4.52805 10.9992 4.65696C11.0526 4.78586 11.1309 4.90298 11.2296 5.00163L13.6457 7.41776L4.95801 7.43759C4.67622 7.43759 4.40596 7.54953 4.20671 7.74879C4.00745 7.94805 3.89551 8.2183 3.89551 8.50009C3.89551 8.78188 4.00745 9.05213 4.20671 9.25139C4.40596 9.45065 4.67622 9.56259 4.95801 9.56259L13.6833 9.54276L11.2275 11.9985C11.0281 12.1978 10.9161 12.468 10.9161 12.7498C10.916 13.0317 11.0279 13.302 11.2271 13.5013C11.4263 13.7006 11.6966 13.8126 11.9784 13.8127C12.2602 13.8127 12.5305 13.7009 12.7298 13.5016L15.9783 10.2532C16.4427 9.7881 16.7037 9.1578 16.7041 8.50053C16.7045 7.84326 16.4442 7.21265 15.9804 6.74696Z" fill="#DA2800"/>
</svg>
