<svg width="40" height="40" viewBox="0 0 40 40" fill="none" xmlns="http://www.w3.org/2000/svg">
    <circle cx="20" cy="20" r="20" fill="#E0E7FF"/>
    <path d="M13.7357 22.0269C11.8884 23.9902 13.4314 25.6525 13.9192 26.1402C15.2837 27.5047 16.672 27.5614 18.0414 26.3178C17.2856 25.8392 16.4943 25.205 15.676 24.3899C15.676 24.3899 14.2218 22.8947 13.7357 22.0261V22.0269Z" fill="#506AC1"/>
    <path d="M14.9341 16.2844C13.396 17.899 14.105 20.4939 16.8373 23.2254C19.5622 25.9503 22.167 26.6535 23.7922 25.1204C24.1533 24.779 24.3959 24.2765 24.6772 23.6942C25.0021 23.0214 25.3706 22.2606 25.9652 21.6659C29.0874 18.5438 28.2271 16.2737 27.0402 14.7785L27.6587 14.1624C28.1415 13.6821 28.1432 12.9007 27.662 12.4179C27.1817 11.9351 26.3995 11.9343 25.9175 12.4146L25.2801 13.0496C23.0314 11.3553 20.819 11.7122 18.4017 14.1205C17.812 14.7077 17.0454 15.0754 16.3693 15.3994C15.7829 15.6807 15.2754 15.9242 14.9333 16.2844H14.9341Z" fill="#506AC1"/>
    <path d="M26.5665 23.8635C25.8846 23.8635 25.3327 24.4154 25.3327 25.0973C25.3327 26.4683 24.2109 27.5844 22.8307 27.5844C22.1489 27.5844 21.597 28.1363 21.597 28.8182C21.597 29.5 22.1489 30.0519 22.8307 30.0519C25.5704 30.0519 27.8002 27.8287 27.8002 25.0973C27.8002 24.4154 27.2483 23.8635 26.5665 23.8635Z" fill="#506AC1"/>
    <path d="M14.9686 14.7455C15.6505 14.7455 16.2023 14.1936 16.2023 13.5118C16.2023 12.83 15.6505 12.2781 14.9686 12.2781C12.2289 12.2781 10 14.5012 10 17.2335C10 17.9154 10.5519 18.4673 11.2337 18.4673C11.9156 18.4673 12.4675 17.9154 12.4675 17.2335C12.4675 15.8625 13.5893 14.7455 14.9686 14.7455Z" fill="#506AC1"/>
</svg>
