
<svg width="10" height="10" viewBox="0 0 10 10" fill="none" xmlns="http://www.w3.org/2000/svg">
    <path d="M4.60518 0.857409C4.79165 0.497303 5.3067 0.497303 5.49318 0.857408L6.59859 2.99207C6.67317 3.13609 6.81297 3.23499 6.97359 3.25737L9.40549 3.59619C9.82288 3.65435 9.98553 4.1711 9.67669 4.45783L7.94902 6.06184C7.8242 6.17773 7.76696 6.34918 7.79712 6.51681L8.2089 8.80537C8.28183 9.21069 7.86091 9.52545 7.49274 9.34089L5.27324 8.2283C5.13223 8.15761 4.96612 8.15761 4.82511 8.2283L2.60561 9.34089C2.23744 9.52545 1.81652 9.2107 1.88945 8.80537L2.30123 6.51681C2.33139 6.34918 2.27415 6.17773 2.14933 6.06184L0.421665 4.45783C0.112826 4.1711 0.275472 3.65435 0.692865 3.59619L3.12476 3.25737C3.28539 3.23499 3.42518 3.13609 3.49976 2.99207L4.60518 0.857409Z" fill="#FAC950"/>
</svg>
