<svg width="10" height="10" viewBox="0 0 10 10" fill="none" xmlns="http://www.w3.org/2000/svg">
    <path d="M4.48848 0.857409C4.67495 0.497303 5.19 0.497303 5.37648 0.857408L6.48189 2.99207C6.55647 3.13609 6.69627 3.23499 6.8569 3.25737L9.28879 3.59619C9.70618 3.65435 9.86883 4.1711 9.55999 4.45783L7.83232 6.06184C7.7075 6.17773 7.65026 6.34918 7.68042 6.51681L8.0922 8.80537C8.16514 9.21069 7.74421 9.52545 7.37604 9.34089L5.15654 8.2283C5.01553 8.15761 4.84942 8.15761 4.70841 8.2283L2.48891 9.34089C2.12074 9.52545 1.69982 9.2107 1.77275 8.80537L2.18453 6.51681C2.21469 6.34918 2.15745 6.17773 2.03263 6.06184L0.304966 4.45783C-0.00387365 4.1711 0.158773 3.65435 0.576165 3.59619L3.00806 3.25737C3.16869 3.23499 3.30848 3.13609 3.38306 2.99207L4.48848 0.857409Z" fill="#C4C4C4"/>
</svg>
