<svg width="45" height="45" viewBox="0 0 45 45" fill="none" xmlns="http://www.w3.org/2000/svg">
    <path d="M44.2229 22.5004C44.2229 34.5275 34.4722 44.2782 22.444 44.2782H22.4033C10.3944 44.2557 0.66626 34.5114 0.66626 22.5004C0.66626 10.4894 10.3944 0.744122 22.4033 0.722656H22.444C34.4722 0.722656 44.2229 10.4701 44.2229 22.5004Z" fill="black"/>
    <path d="M22.4032 0.722656V44.2782C10.3944 44.2557 0.66626 34.5114 0.66626 22.5004C0.66626 10.4894 10.3944 0.744122 22.4032 0.722656Z" fill="#0C0C0C"/>
    <path d="M34.2944 16.4721L34.2676 20.9337C33.3981 20.9231 32.5332 20.807 31.6917 20.5881C30.3935 20.249 29.1691 19.673 28.0801 18.8891C28.0801 19.3453 28.0866 20.0257 28.0866 20.8532C28.0866 21.9544 28.0866 22.5801 28.0801 23.2445C28.0608 27.3487 28.1628 28.1429 27.8022 29.7657C27.7271 30.157 27.6246 30.5426 27.4952 30.9194C26.8019 32.8513 25.2907 34.399 23.7506 35.2222C23.3208 35.4507 22.8696 35.6365 22.4036 35.7771C19.4929 36.6593 15.9951 35.8844 14.1898 33.7379L14.178 33.725L14.1641 33.7067C12.6304 31.8564 12.2955 28.9715 12.2633 28.233C12.2633 28.1386 12.2569 28.0463 12.2569 28.0463C12.2333 27.0376 12.3784 26.032 12.6862 25.0712C12.9974 24.0773 14.0224 22.0027 16.3246 20.7427C17.7604 19.9692 19.3992 19.6556 21.0191 19.8443L20.9665 24.3596C20.8753 24.336 18.6697 23.8133 17.2218 25.3159C15.9103 26.6768 15.9951 28.8695 16.9256 30.1113C16.975 30.1778 17.0276 30.2422 17.0823 30.3023C17.6028 30.883 18.2629 31.1008 18.7083 31.2532C19.2989 31.4478 19.9188 31.5386 20.5404 31.5215C21.2063 31.5112 21.8541 31.3031 22.4015 30.9237C23.9148 29.8955 24.1187 28.0645 24.1262 27.9604C24.1076 22.066 24.0901 16.1716 24.0736 10.2772V10.2718L26.9103 10.2214H26.9564L27.3675 10.2139C27.6706 11.3047 28.1843 12.3256 28.8797 13.219C29.0988 13.4985 29.3354 13.7637 29.5881 14.0133C30.5427 14.9424 31.6894 15.6509 32.9474 16.089H32.956C33.3924 16.2484 33.8397 16.3765 34.2944 16.4721Z" fill="#FD2854"/>
    <path d="M33.012 18.4904H33.0035C31.4758 18.7351 29.912 18.6163 28.4388 18.1437C27.4101 17.8092 26.4445 17.3054 25.5818 16.6529C26.0991 19.7799 26.0991 22.9707 25.5818 26.0977C24.9689 29.7726 24.5847 32.0759 22.5337 33.5495C22.4907 33.5806 22.4467 33.6117 22.4027 33.6407C19.5704 35.5586 15.6132 34.6066 14.1632 33.704L14.1418 33.6911L14.101 33.6654C13.623 33.3488 13.1747 32.9895 12.7615 32.5921C12.0208 31.8736 11.4298 31.0155 11.0225 30.0674C10.6152 29.1192 10.3997 28.0998 10.3885 27.068C10.361 25.9992 10.5384 24.935 10.9112 23.9329C11.1527 23.289 12.05 20.9986 14.5496 19.6044C16.1502 18.7268 17.9998 18.4137 19.8001 18.7158C19.7929 19.0735 19.7861 19.4313 19.7797 19.789V19.7965L19.7378 22.0611C18.9544 21.8765 18.1445 21.8315 17.3455 21.9281C16.7015 22.0075 16.0704 22.0815 15.3996 22.5033C14.5405 23.0563 13.9325 23.9241 13.706 24.9203C13.5627 25.4029 13.5333 25.9121 13.6201 26.4079C13.6459 26.5496 13.8348 27.5338 14.629 28.24C14.8963 28.4772 15.01 28.4868 15.3996 28.8507C15.7431 29.1727 15.8289 29.3272 16.1434 29.5944C16.1434 29.5944 16.2207 29.6599 16.3473 29.7522C16.3555 29.7593 16.3641 29.7657 16.3731 29.7715C16.5463 29.8982 16.7281 30.0126 16.9172 30.1139C17.704 30.526 19.1121 30.5701 20.1446 30.0688C21.5731 29.3744 22.3523 27.7774 22.3491 26.8286C22.3319 20.9321 22.3144 15.0359 22.2965 9.14002H22.3952L26.7763 9.11426C26.7732 9.456 26.8206 9.79632 26.9169 10.1242C26.9277 10.1596 26.9384 10.1929 26.9502 10.2315C26.962 10.2702 26.9695 10.2884 26.9792 10.3152C27.0471 10.4936 27.1256 10.6678 27.2142 10.8369L27.2754 10.9603V10.9699C27.2744 10.9727 27.2744 10.9758 27.2754 10.9785L27.2851 10.9989L27.2947 11.0182C27.3005 11.0307 27.307 11.0429 27.314 11.0547C27.3205 11.0687 27.328 11.0826 27.3355 11.0966C27.3763 11.1749 27.4321 11.278 27.4954 11.3939C27.5351 11.4658 27.577 11.5377 27.6199 11.6085L27.6661 11.6847C27.6886 11.7234 27.7122 11.762 27.7358 11.7996L27.8217 11.9359C28.1555 12.4629 28.7415 13.3505 29.5722 14.0213C30.7399 14.9636 32.0815 15.2298 32.923 15.3092C32.9283 15.5732 32.9348 15.8372 32.9401 16.1013C32.9716 16.8983 32.9956 17.6947 33.012 18.4904Z" fill="#24F6FA"/>
    <path d="M33.0251 19.7518C30.8136 19.8329 28.6423 19.1453 26.8806 17.8059V27.2507C26.8592 27.6124 26.5426 31.6018 22.9385 33.7977C22.7603 33.905 22.5811 34.0048 22.4019 34.0971C19.0114 35.8272 15.6982 34.4717 15.3709 34.3311C15.0454 34.2247 14.7334 34.0806 14.4414 33.9018C14.3502 33.8449 14.2611 33.7859 14.1763 33.7247L14.1001 33.6678C11.8892 31.9892 11.7979 28.5698 11.784 28.0653C11.7604 27.0566 11.9055 26.0511 12.2133 25.0902C12.5782 23.9257 13.6676 21.9627 15.8517 20.7617C17.0568 20.1059 18.4112 19.7731 19.7831 19.7958V19.8033L19.7294 23.2066C19.4987 23.1444 18.0841 22.788 16.7017 23.6585C15.8426 24.2115 15.2346 25.0792 15.0081 26.0755C14.8726 26.559 14.8433 27.0661 14.9222 27.562C15.0448 28.1743 15.3337 28.7409 15.7572 29.1998C15.9353 29.4048 16.1342 29.5908 16.3508 29.7547C16.3589 29.7617 16.3675 29.7681 16.3765 29.774C16.5466 29.9052 16.7288 30.0198 16.9207 30.1164L16.9271 30.1217C17.3106 30.7009 17.8639 31.1473 18.511 31.3997C19.1581 31.6522 19.8675 31.6984 20.5419 31.532C20.8561 31.4664 21.1613 31.3634 21.4509 31.225C21.8018 31.0582 22.1233 30.8357 22.4029 30.5661C23.4891 29.5218 23.6479 28.0771 23.6554 27.9902L23.6082 10.293L24.0805 10.2833L26.9171 10.2275H26.9579C27.0411 10.4322 27.131 10.6341 27.2273 10.8329L27.2885 10.9563V10.966C27.2875 10.9687 27.2875 10.9718 27.2885 10.9745L27.2981 10.9949L27.3078 11.0142C27.3136 11.0267 27.3201 11.0389 27.3271 11.0507C27.3336 11.0647 27.3411 11.0786 27.3486 11.0926C27.3979 11.1892 27.4559 11.289 27.5085 11.3899C27.5482 11.4618 27.5901 11.5337 27.633 11.6045L27.6791 11.6808L27.7489 11.7956L27.8348 11.9319C28.3257 12.6997 28.9141 13.4007 29.5853 14.0173C30.5648 14.914 31.7044 15.6182 32.9446 16.093H32.9532C32.9672 16.8883 32.9811 17.6857 32.994 18.481L33.0251 19.7518Z" fill="white"/>
    <path d="M34.2941 16.4715L34.2673 20.9331C33.3978 20.9225 32.5329 20.8065 31.6914 20.5875C30.3932 20.2484 29.1688 19.6724 28.0799 18.8886C28.0799 19.3447 28.0863 20.0251 28.0863 20.8526C28.0863 21.9538 28.0863 22.5795 28.0799 23.2439C28.0605 27.3481 28.1625 28.1423 27.8019 29.7651C27.7269 30.1564 27.6243 30.542 27.4949 30.9189C26.8016 32.8508 25.2904 34.3984 23.7503 35.2216C23.3205 35.4501 22.8693 35.636 22.4033 35.7765V9.14002L26.7844 9.11426C26.7813 9.456 26.8287 9.79632 26.925 10.1242C26.9358 10.1596 26.9465 10.1929 26.9583 10.2315L27.3694 10.224C27.6725 11.3148 28.1862 12.3358 28.8816 13.2292C29.1007 13.5086 29.3373 13.7739 29.59 14.0234C30.7577 14.9657 32.0993 15.2319 32.9407 15.3113C32.9461 15.5754 32.9525 15.8394 32.9579 16.1034C33.394 16.2577 33.8405 16.3807 34.2941 16.4715Z" fill="black" fill-opacity="0.09"/>
</svg>
