<svg width="51" height="51" viewBox="0 0 51 51" fill="none" xmlns="http://www.w3.org/2000/svg">
    <path d="M25.5 51C39.5833 51 51 39.5833 51 25.5C51 11.4167 39.5833 0 25.5 0C11.4167 0 0 11.4167 0 25.5C0 39.5833 11.4167 51 25.5 51Z" fill="#29A71A"/>
    <path d="M36.7432 14.257C34.0901 11.5775 30.5669 9.93418 26.8089 9.62358C23.051 9.31299 19.3057 10.3555 16.2487 12.5631C13.1918 14.7707 11.0243 17.998 10.1372 21.663C9.25022 25.3279 9.70206 29.1892 11.4112 32.5503L9.73346 40.6958C9.71605 40.7769 9.71556 40.8607 9.73201 40.942C9.74847 41.0233 9.78151 41.1003 9.82909 41.1682C9.89878 41.2713 9.99826 41.3506 10.1142 41.3957C10.2302 41.4407 10.3572 41.4493 10.4782 41.4203L18.4614 39.5281C21.8131 41.194 25.6471 41.6168 29.2813 40.7212C32.9154 39.8256 36.114 37.6697 38.3078 34.6372C40.5016 31.6046 41.5484 27.8921 41.2619 24.1602C40.9754 20.4283 39.3742 16.9191 36.7432 14.257ZM34.254 34.1238C32.4184 35.9543 30.0546 37.1626 27.4958 37.5785C24.9371 37.9944 22.3123 37.5969 19.9914 36.442L18.8787 35.8914L13.9844 37.0505L13.9989 36.9897L15.0131 32.0635L14.4683 30.9885C13.2825 28.6595 12.8642 26.0149 13.2733 23.4336C13.6824 20.8523 14.898 18.4668 16.746 16.6186C19.0679 14.2974 22.2168 12.9934 25.5 12.9934C28.7832 12.9934 31.9321 14.2974 34.254 16.6186C34.2738 16.6413 34.2951 16.6626 34.3178 16.6824C36.611 19.0096 37.8911 22.149 37.8792 25.4162C37.8672 28.6834 36.5642 31.8134 34.254 34.1238Z" fill="white"/>
    <path d="M33.8194 30.5099C33.2196 31.4545 32.272 32.6107 31.081 32.8976C28.9947 33.4018 25.7927 32.915 21.8083 29.2001L21.7591 29.1566C18.2557 25.9083 17.3458 23.2047 17.566 21.0604C17.6877 19.8433 18.702 18.7422 19.5568 18.0236C19.6919 17.9082 19.8522 17.8261 20.0248 17.7838C20.1973 17.7414 20.3774 17.7401 20.5506 17.7798C20.7237 17.8195 20.8852 17.8992 21.0221 18.0124C21.159 18.1257 21.2675 18.2695 21.3389 18.4321L22.6284 21.3299C22.7122 21.5178 22.7432 21.7249 22.7182 21.9291C22.6932 22.1333 22.6131 22.3269 22.4864 22.489L21.8344 23.3351C21.6945 23.5098 21.6101 23.7224 21.592 23.9455C21.5739 24.1686 21.623 24.392 21.733 24.5869C22.0981 25.2273 22.9732 26.1691 23.9439 27.0413C25.0335 28.0265 26.2418 28.9277 27.0068 29.2349C27.2115 29.3185 27.4366 29.3389 27.653 29.2935C27.8694 29.248 28.0672 29.1388 28.221 28.9799L28.9773 28.2178C29.1232 28.0739 29.3047 27.9712 29.5032 27.9203C29.7018 27.8694 29.9102 27.8721 30.1074 27.928L33.1703 28.7973C33.3393 28.8491 33.4941 28.9389 33.6231 29.0598C33.752 29.1806 33.8516 29.3294 33.9142 29.4946C33.9769 29.6599 34.0009 29.8373 33.9844 30.0132C33.968 30.1892 33.9116 30.3591 33.8194 30.5099Z" fill="white"/>
</svg>
